# xmcd
#
# Track frame offsets: 
#        150
#        16165
#        27228
#        47173
#        64975
#        87819
#        101660
#        120510
#        144564
#        162615
#        180208
#        200599
#        217599
#        238126
#        254942
#        275697
#        300073
#        315003
#        333748
#
# Disc length: 4575 seconds
#
# Revision: 1
# Processed by: cddbd v1.5.2PL0 Copyright (c) Steve Scherf et al.
# Submitted via: ExactAudioCopy v0.95b4
#
DISCID=0611dd13
DTITLE=Muddy Waters - The London Muddy Waters Sessions. King Bee
DYEAR=1981
DGENRE=Blues
TTITLE0=Blind Man Blues
TTITLE1=Key To The Highway
TTITLE2=Young Fashioned Ways
TTITLE3=I'm Gonna Move To The Outskirts Of Town
TTITLE4=Who's Gonna Be Your Sweet Man When I'm Gone
TTITLE5=Walkin' Blues
TTITLE6=I'm Ready
TTITLE7=Sad Sad Day
TTITLE8=I Don't Know Why
TTITLE9=I'm A King Bee
TTITLE10=Too Young To Know
TTITLE11=Mean Old Frisco Blues
TTITLE12=Forever Lonely
TTITLE13=I Feel Like Going Home
TTITLE14=Champagne and Reefer
TTITLE15=Sad Sad Day
TTITLE16=(my Eyes) Keep Me In Trouble
TTITLE17=Deep Down In Florida #2
TTITLE18=No Escape From The Blues
EXTD=title 1 =01-10\ntitle 2 =11-19
EXTT0=
EXTT1=
EXTT2=
EXTT3=
EXTT4=
EXTT5=
EXTT6=
EXTT7=
EXTT8=
EXTT9=
EXTT10=
EXTT11=
EXTT12=
EXTT13=
EXTT14=
EXTT15=
EXTT16=
EXTT17=
EXTT18=
PLAYORDER=
